<svg id="wb" xmlns="http://www.w3.org/2000/svg" viewBox="0 0 923.04 684.11">
    <defs>
        <style>.cls-1{fill:url(#lgrad);}</style> 
        <linearGradient id="lgrad" x1="0%" y1="100%" x2="100%" y2="0%" > 
            <stop offset="0%" style="stop-color:rgb(134,223,249);stop-opacity:1" />
            <stop offset="50%" style="stop-color:rgb(202,72,165);stop-opacity:1" />
            <stop offset="100%" style="stop-color:rgb(147,255,156);stop-opacity:1" />
            <animate attributeName="x2" dur="30s" from="0%" to="0%" values="0%; 120%; 70%; 200%; 125%; 135%; 50%; 190%; 0%" repeatCount="indefinite" />
            <animate attributeName="y2" dur="30s" from="0%" to="0%" values="0%; 120%; 70%; 200%; 125%; 135%; 50%; 190%; 0%" repeatCount="indefinite" />
        </linearGradient> 
    </defs>
    <title>logo-smooth-thick</title>
    <path class="cls-1" d="M198.39,684.11c-29.68,0-53.67-5.84-71.32-17.34-24.8-16.17-37.09-42.11-36.54-77.1a21.09,21.09,0,0,1,21-20.67h.33a21,21,0,0,1,20.68,21.27v.06c-.32,20.16,5.24,33.27,17.47,41.26,10.68,7,26.82,10.5,47.95,10.5,32.54,0,75.49-8.34,127.65-24.79,75-23.67,149-57.68,184.54-74l6.46-3c25.51-11.69,51.29-22.81,78.59-34.58,77-33.22,156.59-67.54,221.12-111.9,18.83-13,62.85-46.67,64.68-79.56.81-13.88-6.31-27.13-21.75-40.53-4.53-3.92-24.3-11.69-52.37-15.88a216.41,216.41,0,0,0-31.23-2.51c-17.37,0-24.93,2.8-27.37,4l-.94.46a10,10,0,0,1-1.79.67l-1,.27a41.52,41.52,0,0,1-11,1.63c-8.44,0-15.45-3.28-20.26-9.48-11.88-15.31-2-32.45,13-58.4,14.6-25.25,39-67.45,29.18-89-5.41-11.9-23-17.56-36.82-20.21a50.69,50.69,0,0,0-9.59-.9c-38.5,0-80.54,41.73-108.37,69.35L598.45,156c-26.15,26-45.22,61-63.66,94.81-20.33,37.33-41.34,75.9-72.6,104.61-23.38,21.59-43.32,31.66-62.73,31.66-1,0-2.1,0-3.15-.09-26.32-1.59-43-21.16-59.19-40.09-11.63-13.62-23.65-27.7-39.65-36.5a38.17,38.17,0,0,0-18.89-4.65c-32.35,0-74.39,32.41-111.49,61-38.68,29.81-72.06,55.53-103,55.53a50,50,0,0,1-20.93-4.47C17.44,406.11,3.88,373.22.48,314.28-2,270.18,5.24,196.57,27.22,131.55,54.43,51,96.31,5.58,148.32.12A21.29,21.29,0,0,1,150.53,0a21,21,0,0,1,2.18,41.89c-17.35,1.82-33.62,12-48.38,30.13C89.94,89.73,77.4,114.28,67,145c-20.19,59.75-26.9,126.82-24.59,166.8,3.31,57.63,15.52,66.51,18.11,67.75a8.33,8.33,0,0,0,3.28.67h.34c16.63,0,50.27-25.92,77.3-46.75l.16-.13c42.45-32.69,90.57-69.75,136.9-69.75a80.35,80.35,0,0,1,39.23,10c22.78,12.52,38.59,31.07,51.29,46l.14.16c11.34,13.29,21.14,24.76,29.6,25.26l.71,0c5.47,0,15.87-3.56,34.29-20.51,26.11-24,44.56-57.88,64.1-93.73l.1-.19c19.87-36.48,40.42-74.2,70.91-104.45l2.36-2.34C603.94,91.4,653.32,42.4,708.91,42.4a93.62,93.62,0,0,1,17.7,1.69c34.23,6.66,56.8,21.46,67.1,44,18.54,40.66-9.09,89.49-30,125.66q5.68-.39,11.9-.39a262,262,0,0,1,37.49,2.94c12.49,1.86,54.7,9.22,73.69,25.69,25.54,22.14,37.71,47.24,36.17,74.6-2.64,47.17-46.52,86.85-82.86,111.83-67.88,46.7-149.38,81.84-228.19,115.82l-.42.18c-27,11.63-52.46,22.62-77.35,34l-6.25,2.87c-36.42,16.75-112.05,51.52-189.63,76-44.14,13.93-82.77,22.52-114.83,25.54C214.67,683.7,206.27,684.11,198.39,684.11Z"/>
</svg>