<svg id="Layer_1" data-name="Layer 1" xmlns="http://www.w3.org/2000/svg" viewBox="0 0 800 218.09"><defs><style>.cls-1{fill:#111111;}.cls-2{fill:#222222;}</style></defs><title>skyline</title><path class="cls-1" d="M22.33,140.9l4.33-1.17,6.67.58V137.9H37v1H80.17v3.83h28.5v-3.5h1.17v14.83h32.83V140.23l2.5-.5v-3.17h13.17l1-26.67,1,26.5h2.5v1.5h1v10.17h7l.83-1.67v-3.83l-1.5-.17,1.5-2.33v-3.33L175,133.4v-6.17l1.17-4.83,1.17,4.83h20.5V73.07l.5-16.54,2.21-.67L201,42.56,212,39.31,224,40.73l.25,15H226l.58,76.92v9.63h72.54v-38.5l9.67-15.6,2.92,3.38,5.13,7.56v14.25l3,.38v12.94l3.75,3h18.75V111.5l2.13-.37V97.31l5.06-10.44,18.63,2.06,4.94,8.81v13.69h2.06v2h5.63v31.38h4.38l.56,1.5h1.13V128.06h4.25V99.5l5.75-.56-1.81-2.25,2.56-3.62,1.44,2.44,14.5-1.5L416,90.69l2.69,3.63-2.19,2.94v.81h5.94v30h31.94v13.38h14.69l1.38,1.81h1.38V109.69l3.81-.75v-4.5h2.25s14.38-1.44,18.56-.31h3v4.31h-.81v60.63h16.75V141h14.81v-2.94h13.69v2.25h2.88v1h2.31v7.44l1.94-1.87h5.63l.44-1.19v1.13l.88.94H560v1.38h2.63v3.31h3.81v-1.87h1.5v-2.62h1.38v.69h7.75v2h37.25v16.69h50.56v10.44h7.31V176H679v-1.25h10.5V179h30.88v-8.37h3.94v-2.56h1.63v2.5h2.69V136.69h4.13v-1.56h2.31l1.63.56v-.56h1.25V133h8.56l.88-.69,1.13,1.13v3.88l4.44.94v32.38l.75-.31,1.06.63v.94l.56-.31h.88v-2.31h2.88v1.56H760l.5-.44h4.13l.38.81h1.06l.38-.69H800V396.86H0V154.73H21.17Z"/><path class="cls-2" d="M121.5,149.23s-.67-6.17,0-6.17H132V136.9h9v6.17h5.5v7.83h17v-1.17h3.17V148.4h4.17v1.17h2.5V125.73l5-.83v-3l5.5-1.17V104.9l.33-1.67v-3l.29-.71V98.1l.25-.33v-5l.21-.42V86.81h2V82.75h.22V78.81s1.41-.3,1.41-.3v-4l1.43-.25v.58l12.29-2.79,2.44-1.12h1.56l1.75,2.5v2.94h1.19v7.94l2.38.19V97.41h.38v15.47l3.75,2.75v-1.56h1.06v-6.37h.81v-1.5h8.06v7.94h1.19v12.69l1.56,2.31h3.06v7h3.63V125.56h1.69v-5.62h-.56v-.75h.56v-6.5h-.69v-.75h.69V105.5h-.69v-.87h.69V98.19h-.56v-.62h.56V90.88l-.56-.06V82.56l7.13-1.44V48.81H243v-7l17.81-5.87h1.5V22.44l4-1.12h1V.69L269.63,0l1.75.38V21.94h2.06v15h2.13V81.19h2.19v39.94h2.19V88.73l-.52-2.58,5.33-.92V81.9h1.33V80.81l8.42-10.08,9.33,10.75v4.25h5v55.08l6.58-.67v-1.33l6.5-.5V122.56L327,122v.75h15.42v6l2.42,3.58v6h7.25v-5h21.08V159h1.33v-3.42h7.17v-1.08h2v1.08h2.92v4.17h4v1h6.58v-1.25h17V162h8v1.17H425V127.4h1.67v-2.33h2v-30l5.92-.67-1.83-2.83,2.75-3.17L437.08,91,453.5,89.4l2.67-3.33,2.33,3.33-2.08,3.67,6.25.75v30.83h3.67v29.29h21.79v-2.56h3.94v2.69h1.19v1.06h14v10.13h1.88l2.31-1.12v-1.56h2.38v-2.19h1v1.69h1.13l1.13-1.56,1.56,1.38h1.81v-.81h20.13v3.69h9.38v-3.62h7.63v3.44h20.56V145.88h4.06V143.5H593.5v2.19h2.13l3.19,1.19V133.25h2.88v-1.69l5.63-.81h7.44l3.81,1.06V134l2.94.44v27.69h8.25V119.06h1v-1.37h-.62v-8.87l32-2.25,8.63,1.38v8.75h-1v1.38l1,.13v65.75H675l3.88-3.12v-4.12h2.38v-12h24.88v11.88l4.25-3.87H719l2.25,2.88,7.13.38.63,1.25h1.25l1,2.38h14.5v2.63h4.13v-3.75h17v-2l-1.12-2.75h1.13v-3.87l1.13-1.35v-5.4h28.5l3.5.88V396.86H0V151.31H39.75V136.56H38.38v-2.62h1v-1.87H38.5v-2.87h.88v-3.37h15v-3.62l-.87-3.25H61v-1.37h1.88v-.75H64.5v.75l7,3.75v4.5H73l1.88,2.13h2.5l1.13.88H76l5.75,3.25v15.25h29.5v1.5h8.63Z"/></svg>